<svg xmlns="http://www.w3.org/2000/svg" viewBox="0 0 400 300" width="100%" height="100%">
  <defs>
    <linearGradient id="bg-protestantism-luther-bible" x1="0%" y1="0%" x2="100%" y2="100%">
      <stop offset="0%" stop-color="#0f172a" />
      <stop offset="50%" stop-color="#1e293b" />
      <stop offset="100%" stop-color="#090d16" />
    </linearGradient>
    <radialGradient id="glow-protestantism-luther-bible" cx="50%" cy="45%" r="50%">
      <stop offset="0%" stop-color="#fb923c" stop-opacity="0.35" />
      <stop offset="60%" stop-color="#fb923c" stop-opacity="0.08" />
      <stop offset="100%" stop-color="#fb923c" stop-opacity="0" />
    </radialGradient>
  </defs>
  
  <!-- Background -->
  <rect width="400" height="300" fill="url(#bg-protestantism-luther-bible)" />
  <circle cx="200" cy="130" r="110" fill="url(#glow-protestantism-luther-bible)" />
  
  <!-- Outer border -->
  <rect x="12" y="12" width="376" height="276" rx="8" fill="none" stroke="#fb923c" stroke-opacity="0.25" stroke-width="1.5" />
  <rect x="16" y="16" width="368" height="268" rx="6" fill="none" stroke="#ffffff" stroke-opacity="0.05" stroke-width="1" />
  
  <!-- Corner decorative brackets -->
  <path d="M 22 34 L 22 22 L 34 22" fill="none" stroke="#fb923c" stroke-width="2" stroke-linecap="round" />
  <path d="M 378 34 L 378 22 L 366 22" fill="none" stroke="#fb923c" stroke-width="2" stroke-linecap="round" />
  <path d="M 22 266 L 22 278 L 34 278" fill="none" stroke="#fb923c" stroke-width="2" stroke-linecap="round" />
  <path d="M 378 266 L 378 278 L 366 278" fill="none" stroke="#fb923c" stroke-width="2" stroke-linecap="round" />
  
  <!-- Central Icon / Illustration -->
  <g transform="translate(200, 130)">
    
  <rect x="-40" y="-40" width="80" height="80" rx="6" fill="#1e293b" stroke="#fb923c" stroke-width="3"/>
  <path d="M 0 -25 V 25 M -18 -8 H 18" stroke="#fdba74" stroke-width="4" stroke-linecap="round"/>

  </g>
  
  <!-- Subtitle Tag -->
  <rect x="200" y="222" width="220" height="22" rx="11" transform="translate(-110, 0)" fill="#fb923c" fill-opacity="0.15" stroke="#fb923c" stroke-opacity="0.4" stroke-width="1" />
  <text x="200" y="237" font-family="system-ui, -apple-system, sans-serif" font-size="10.5" font-weight="600" fill="#fb923c" text-anchor="middle" letter-spacing="0.05em">WITTENBERG · 1534 CE</text>
  
  <!-- Title -->
  <text x="200" y="268" font-family="system-ui, -apple-system, sans-serif" font-size="13" font-weight="700" fill="#f8fafc" text-anchor="middle">Luther Vernacular Bible</text>
</svg>